# File created by Blade
# Date/Time:  Wed Apr 08 14:10:35 2015
# Frame Rate: 120.000 fps
#------------------------------------------------------
:FULLY-SPECIFIED
:DEGREES
484
root -0.528766 35.160997 15.253946 10.740971 9.789851 -7.431799
Spine -2.721524 -9.210490 3.343775
Head 25.123311 -0.004000 -1.963085
LeftShoulder -19.559251 48.630910 5.821205
LeftArm 58.028399 -6.445515 -81.637955
LeftForeArm 0.272964 0.000000 -3.267000
LeftHand 16.738218 0.000000 16.884772
LeftHandThumb1 -26.253704 0.000000 33.147579
RightShoulder -7.876554 -3.987789 -23.947889
RightArm 12.711413 10.838674 55.508425
RightForeArm -6.331598 -0.000000 34.238344
RightHand 18.168120 -0.000000 -17.556063
RightHandThumb1 -24.326973 -0.000000 -32.862282
LeftUpLeg -25.324155 -5.528088 8.596521
LeftLeg 22.215497 -0.000000 -0.000000
LeftFoot 22.528609 3.281248 -26.950547
LeftToeBase -21.759602 -0.000000 0.000000
RightUpLeg -18.212158 3.022557 8.497932
RightLeg 19.181666 -0.000000 -0.000000
RightFoot 22.471100 -11.657201 19.134203
RightToeBase -28.284373 -0.000000 0.000000
485
root -0.485936 34.129654 15.327200 10.713958 9.618327 -7.461288
Spine -2.675844 -9.140237 3.839666
Head 23.124124 0.088429 -2.527704
LeftShoulder -19.619728 48.987939 6.018429
LeftArm 57.663465 -5.986441 -82.108171
LeftForeArm -0.424956 -0.000000 -4.546378
LeftHand 16.937328 -0.000000 16.791669
LeftHandThumb1 -26.253704 0.000000 33.147579
RightShoulder -7.360049 -4.005712 -24.608725
RightArm 12.192021 11.008972 54.839223
RightForeArm -7.294710 0.000000 33.520345
RightHand 18.284094 -0.000000 -17.408546
RightHandThumb1 -24.326973 -0.000000 -32.862282
LeftUpLeg -24.942688 -5.962255 7.185532
LeftLeg 23.180835 -0.000000 -0.000000
LeftFoot 12.318902 0.395084 -14.850980
LeftToeBase -39.702358 -0.000000 0.000000
RightUpLeg -18.047580 5.105487 8.567466
RightLeg 21.364834 -0.000000 -0.000000
RightFoot 11.321518 -9.009238 15.783438
RightToeBase -36.119309 -0.000000 0.000000
486
root -0.425333 33.093929 15.368744 10.733935 9.476928 -7.384061
Spine -2.580067 -9.095912 4.279858
Head 20.999997 0.161844 -3.121057
LeftShoulder -19.573692 49.050735 6.390871
LeftArm 56.982326 -5.900481 -82.920213
LeftForeArm -1.374039 0.000000 -5.045896
LeftHand 16.975671 -0.000000 17.041751
LeftHandThumb1 -26.253704 0.000000 33.147579
RightShoulder -6.791687 -3.885102 -25.245040
RightArm 11.527227 11.127199 53.913548
RightForeArm -8.547107 0.000000 32.979776
RightHand 18.126853 -0.000000 -17.361729
RightHandThumb1 -24.326973 -0.000000 -32.862282
LeftUpLeg -24.891451 -7.227870 6.543606
LeftLeg 25.485044 -0.000000 -0.000000
LeftFoot -3.850386 4.002043 -12.828859
LeftToeBase -19.583453 -0.000000 0.000000
RightUpLeg -18.473982 5.538594 8.543738
RightLeg 25.771818 -0.000000 -0.000000
RightFoot -3.435926 -8.096814 11.051945
RightToeBase -23.538026 -0.000000 0.000000
487
root -0.312606 32.067479 15.376875 10.853396 8.810221 -6.456728
Spine -2.208895 -8.638900 3.657639
Head 18.446234 0.180803 -3.302674
LeftShoulder -19.893622 49.015203 6.628294
LeftArm 56.419488 -6.153958 -83.993889
LeftForeArm -2.160647 0.000000 -4.760304
LeftHand 17.129681 -0.000000 18.097931
LeftHandThumb1 -26.253704 0.000000 33.147579
RightShoulder -6.582120 -3.510707 -25.711119
RightArm 11.004357 11.050453 52.987877
RightForeArm -9.247553 -0.000000 32.452086
RightHand 18.166840 0.000000 -17.841086
RightHandThumb1 -24.326973 -0.000000 -32.862282
LeftUpLeg -25.424912 -7.749191 4.962740
LeftLeg 29.431326 -0.000000 -0.000000
LeftFoot -18.104534 5.709047 -13.861035
LeftToeBase -3.778989 -0.000000 0.000000
RightUpLeg -20.356843 4.282331 7.649066
RightLeg 32.958600 -0.000000 -0.000000
RightFoot -15.208801 -6.526266 9.795382
RightToeBase -17.110218 -0.000000 0.000000
488
root -0.220501 31.158857 15.334140 11.488475 8.429370 -5.139523
Spine -2.066966 -8.521812 2.508885
Head 15.307497 0.137829 -2.901696
LeftShoulder -21.092409 48.958765 5.992944
LeftArm 56.388907 -6.849594 -84.966433
LeftForeArm -2.928774 0.000000 -4.061018
LeftHand 17.906862 -0.000000 19.774843
LeftHandThumb1 -26.253704 0.000000 33.147579
RightShoulder -6.684081 -2.911946 -25.604790
RightArm 10.511478 11.148826 52.208879
RightForeArm -9.157445 0.000000 32.081809
RightHand 18.311891 0.000000 -19.687940
RightHandThumb1 -24.326973 -0.000000 -32.862282
LeftUpLeg -27.468363 -6.007530 2.228638
LeftLeg 35.137460 -0.000000 -0.000000
LeftFoot -25.800251 8.303989 -9.085218
LeftToeBase -8.913975 -0.000000 0.000000
RightUpLeg -21.550902 4.181348 5.930636
RightLeg 36.477659 -0.000000 -0.000000
RightFoot -25.284457 -4.033786 11.843236
RightToeBase -13.350678 -0.000000 0.000000
489
root -0.115195 30.562680 15.035753 16.081798 8.743451 -2.301077
Spine -5.884030 -9.361874 0.363916
Head 13.328926 0.075996 -2.232589
LeftShoulder -22.782772 49.350004 4.055232
LeftArm 57.143816 -8.811966 -86.142797
LeftForeArm -2.287859 -0.000000 -2.746817
LeftHand 18.400472 -0.000000 21.999160
LeftHandThumb1 -26.253704 0.000000 33.147579
RightShoulder -6.894147 -2.175345 -24.563350
RightArm 9.755903 11.710818 51.650180
RightForeArm -8.595419 -0.000000 32.230969
RightHand 18.281022 -0.000000 -21.106839
RightHandThumb1 -24.326973 -0.000000 -32.862282
LeftUpLeg -35.119600 -7.783051 -0.634318
LeftLeg 42.376027 -0.000000 -0.000000
LeftFoot -26.696871 11.432651 -7.420603
LeftToeBase -16.217575 -0.000000 0.000000
RightUpLeg -27.115924 2.557883 2.936671
RightLeg 39.982678 -0.000000 -0.000000
RightFoot -32.593780 -3.168003 12.264928
RightToeBase -7.747696 -0.000000 0.000000
